<svg width="32" height="32" viewBox="0 0 32 32" fill="none" xmlns="http://www.w3.org/2000/svg">
<path d="M16 3.83325C16.8889 7.38881 18.6667 10.2777 21.3333 12.4999C24 14.7221 25.3333 17.1666 25.3333 19.8333C25.3333 22.3086 24.35 24.6826 22.5997 26.4329C20.8493 28.1833 18.4754 29.1666 16 29.1666C13.5247 29.1666 11.1507 28.1833 9.40034 26.4329C7.65 24.6826 6.66667 22.3086 6.66667 19.8333C6.66667 18.3908 7.13452 16.9872 8.00001 15.8333C8.00001 16.7173 8.35119 17.5652 8.97632 18.1903C9.60144 18.8154 10.4493 19.1666 11.3333 19.1666C12.2174 19.1666 13.0652 18.8154 13.6904 18.1903C14.3155 17.5652 14.6667 16.7173 14.6667 15.8333C14.6667 13.1666 12.6667 11.8333 12.6667 9.16659C12.6667 7.38881 13.7778 5.61103 16 3.83325Z" stroke="#F97316" stroke-width="2" stroke-linecap="round" stroke-linejoin="round"/>
</svg>
