<svg width="28" height="35" viewBox="0 0 28 35" fill="none" xmlns="http://www.w3.org/2000/svg">
<path d="M14 1.66675C15.1111 6.11119 17.3333 9.7223 20.6667 12.5001C24 15.2779 25.6667 18.3334 25.6667 21.6668C25.6667 24.7609 24.4375 27.7284 22.2496 29.9163C20.0617 32.1043 17.0942 33.3334 14 33.3334C10.9058 33.3334 7.93834 32.1043 5.75042 29.9163C3.56249 27.7284 2.33333 24.7609 2.33333 21.6668C2.33333 19.8637 2.91814 18.1092 4 16.6667C4 17.7718 4.43898 18.8316 5.22038 19.613C6.00179 20.3944 7.06159 20.8334 8.16666 20.8334C9.27173 20.8334 10.3315 20.3944 11.1129 19.613C11.8943 18.8316 12.3333 17.7718 12.3333 16.6667C12.3333 13.3334 9.83333 11.6667 9.83333 8.33342C9.83333 6.11119 11.2222 3.88897 14 1.66675Z" stroke="#F97316" stroke-width="3" stroke-linecap="round" stroke-linejoin="round"/>
</svg>
