<svg width="26" height="35" viewBox="0 0 26 35" fill="none" xmlns="http://www.w3.org/2000/svg">
<path d="M13 1.66675C14.1111 6.11119 16.3333 9.7223 19.6667 12.5001C23 15.2779 24.6667 18.3334 24.6667 21.6667C24.6667 24.7609 23.4375 27.7284 21.2496 29.9163C19.0616 32.1043 16.0942 33.3334 13 33.3334C9.9058 33.3334 6.93834 32.1043 4.75042 29.9163C2.56249 27.7284 1.33333 24.7609 1.33333 21.6667C1.33333 19.8637 1.91814 18.1092 2.99999 16.6667C2.99999 17.7718 3.43898 18.8316 4.22038 19.613C5.00179 20.3944 6.06159 20.8334 7.16666 20.8334C8.27173 20.8334 9.33154 20.3944 10.1129 19.613C10.8943 18.8316 11.3333 17.7718 11.3333 16.6667C11.3333 13.3334 8.83333 11.6667 8.83333 8.33342C8.83333 6.11119 10.2222 3.88897 13 1.66675Z" stroke="#F97316" stroke-width="2" stroke-linecap="round" stroke-linejoin="round"/>
</svg>
