<svg width="44" height="24" viewBox="0 0 44 24" fill="none" xmlns="http://www.w3.org/2000/svg">
<path d="M8 6.3C7.29276 6.3 6.61448 6.57393 6.11438 7.06152C5.61428 7.54912 5.33333 8.21044 5.33333 8.9C5.33333 9.58956 5.61428 10.2509 6.11438 10.7385C6.61448 11.2261 7.29276 11.5 8 11.5C8.70724 11.5 9.38552 11.2261 9.88562 10.7385C10.3857 10.2509 10.6667 9.58956 10.6667 8.9C10.6667 8.21044 10.3857 7.54912 9.88562 7.06152C9.38552 6.57393 8.70724 6.3 8 6.3ZM4 8.9C4 7.86566 4.42143 6.87368 5.17157 6.14228C5.92172 5.41089 6.93913 5 8 5C9.06087 5 10.0783 5.41089 10.8284 6.14228C11.5786 6.87368 12 7.86566 12 8.9C12 9.93434 11.5786 10.9263 10.8284 11.6577C10.0783 12.3891 9.06087 12.8 8 12.8C6.93913 12.8 5.92172 12.3891 5.17157 11.6577C4.42143 10.9263 4 9.93434 4 8.9ZM5.33333 15.4C4.8029 15.4 4.29419 15.6054 3.91912 15.9711C3.54405 16.3368 3.33333 16.8328 3.33333 17.35C3.33333 17.5224 3.2631 17.6877 3.13807 17.8096C3.01305 17.9315 2.84348 18 2.66667 18C2.48986 18 2.32029 17.9315 2.19526 17.8096C2.07024 17.6877 2 17.5224 2 17.35C2 16.488 2.35119 15.6614 2.97631 15.0519C3.60143 14.4424 4.44928 14.1 5.33333 14.1H10.6667C11.5507 14.1 12.3986 14.4424 13.0237 15.0519C13.6488 15.6614 14 16.488 14 17.35C14 17.5224 13.9298 17.6877 13.8047 17.8096C13.6797 17.9315 13.5101 18 13.3333 18C13.1565 18 12.987 17.9315 12.8619 17.8096C12.7369 17.6877 12.6667 17.5224 12.6667 17.35C12.6667 16.8328 12.456 16.3368 12.0809 15.9711C11.7058 15.6054 11.1971 15.4 10.6667 15.4H5.33333Z" fill="#F8F8F8"/>
<path d="M22 6.3C21.2928 6.3 20.6145 6.57393 20.1144 7.06152C19.6143 7.54912 19.3333 8.21044 19.3333 8.9C19.3333 9.58956 19.6143 10.2509 20.1144 10.7385C20.6145 11.2261 21.2928 11.5 22 11.5C22.7072 11.5 23.3855 11.2261 23.8856 10.7385C24.3857 10.2509 24.6667 9.58956 24.6667 8.9C24.6667 8.21044 24.3857 7.54912 23.8856 7.06152C23.3855 6.57393 22.7072 6.3 22 6.3ZM18 8.9C18 7.86566 18.4214 6.87368 19.1716 6.14228C19.9217 5.41089 20.9391 5 22 5C23.0609 5 24.0783 5.41089 24.8284 6.14228C25.5786 6.87368 26 7.86566 26 8.9C26 9.93434 25.5786 10.9263 24.8284 11.6577C24.0783 12.3891 23.0609 12.8 22 12.8C20.9391 12.8 19.9217 12.3891 19.1716 11.6577C18.4214 10.9263 18 9.93434 18 8.9ZM19.3333 15.4C18.8029 15.4 18.2942 15.6054 17.9191 15.9711C17.544 16.3368 17.3333 16.8328 17.3333 17.35C17.3333 17.5224 17.2631 17.6877 17.1381 17.8096C17.013 17.9315 16.8435 18 16.6667 18C16.4899 18 16.3203 17.9315 16.1953 17.8096C16.0702 17.6877 16 17.5224 16 17.35C16 16.488 16.3512 15.6614 16.9763 15.0519C17.6014 14.4424 18.4493 14.1 19.3333 14.1H24.6667C25.5507 14.1 26.3986 14.4424 27.0237 15.0519C27.6488 15.6614 28 16.488 28 17.35C28 17.5224 27.9298 17.6877 27.8047 17.8096C27.6797 17.9315 27.5101 18 27.3333 18C27.1565 18 26.987 17.9315 26.8619 17.8096C26.7369 17.6877 26.6667 17.5224 26.6667 17.35C26.6667 16.8328 26.456 16.3368 26.0809 15.9711C25.7058 15.6054 25.1971 15.4 24.6667 15.4H19.3333Z" fill="#F8F8F8"/>
<path d="M36 6.3C35.2928 6.3 34.6145 6.57393 34.1144 7.06152C33.6143 7.54912 33.3333 8.21044 33.3333 8.9C33.3333 9.58956 33.6143 10.2509 34.1144 10.7385C34.6145 11.2261 35.2928 11.5 36 11.5C36.7072 11.5 37.3855 11.2261 37.8856 10.7385C38.3857 10.2509 38.6667 9.58956 38.6667 8.9C38.6667 8.21044 38.3857 7.54912 37.8856 7.06152C37.3855 6.57393 36.7072 6.3 36 6.3ZM32 8.9C32 7.86566 32.4214 6.87368 33.1716 6.14228C33.9217 5.41089 34.9391 5 36 5C37.0609 5 38.0783 5.41089 38.8284 6.14228C39.5786 6.87368 40 7.86566 40 8.9C40 9.93434 39.5786 10.9263 38.8284 11.6577C38.0783 12.3891 37.0609 12.8 36 12.8C34.9391 12.8 33.9217 12.3891 33.1716 11.6577C32.4214 10.9263 32 9.93434 32 8.9ZM33.3333 15.4C32.8029 15.4 32.2942 15.6054 31.9191 15.9711C31.544 16.3368 31.3333 16.8328 31.3333 17.35C31.3333 17.5224 31.2631 17.6877 31.1381 17.8096C31.013 17.9315 30.8435 18 30.6667 18C30.4899 18 30.3203 17.9315 30.1953 17.8096C30.0702 17.6877 30 17.5224 30 17.35C30 16.488 30.3512 15.6614 30.9763 15.0519C31.6014 14.4424 32.4493 14.1 33.3333 14.1H38.6667C39.5507 14.1 40.3986 14.4424 41.0237 15.0519C41.6488 15.6614 42 16.488 42 17.35C42 17.5224 41.9298 17.6877 41.8047 17.8096C41.6797 17.9315 41.5101 18 41.3333 18C41.1565 18 40.987 17.9315 40.8619 17.8096C40.7369 17.6877 40.6667 17.5224 40.6667 17.35C40.6667 16.8328 40.456 16.3368 40.0809 15.9711C39.7058 15.6054 39.1971 15.4 38.6667 15.4H33.3333Z" fill="#F8F8F8"/>
<path fill-rule="evenodd" clip-rule="evenodd" d="M14 9.05541C14 4.60559 17.6299 1 22.1055 1C26.5851 1 30.2137 4.60559 30.2137 9.05541C30.2137 13.5025 26.5837 17.1081 22.1055 17.1081C17.6299 17.1081 14 13.5025 14 9.05541ZM28.9717 9.14335C28.9717 5.347 25.8883 2.27582 22.0825 2.27582C18.2794 2.27582 15.1987 5.34835 15.1987 9.14335C15.1987 12.937 18.2794 16.0095 22.0825 16.0095C25.8883 16.0095 28.9717 12.9356 28.9717 9.14335Z" fill="#F97316"/>
<path fill-rule="evenodd" clip-rule="evenodd" d="M33.182 22.5984L35.6471 20.1333L30.1852 14.6702C30.1852 14.6702 30.0554 15.7052 29.4005 16.3573C28.7484 17.0121 27.7202 17.1366 27.7202 17.1366L33.182 22.5984Z" fill="#F97316"/>
<path fill-rule="evenodd" clip-rule="evenodd" d="M17.5204 7.86354C17.5204 8.63742 16.9251 8.34519 16.9251 7.2696C16.9251 5.41607 18.4255 3.91431 20.279 3.91431C21.3573 3.91431 21.6482 4.50825 20.8729 4.50825C19.0194 4.50825 17.5204 6.01137 17.5204 7.86354Z" fill="#F97316"/>
<path d="M28.5 18L27.5 17L30 14.5L31 15.5L28.5 18Z" fill="#F97316" stroke="#F97316" stroke-width="1.2"/>
</svg>
