<svg width="43" height="28" viewBox="0 0 43 28" fill="none" xmlns="http://www.w3.org/2000/svg">
<path d="M16.5 19.5C16.5788 18.0751 16.3613 17.1454 18 16.5H26C27 17 27.4991 18.1142 27.5 19.5" stroke="#F5F5F5" stroke-width="0.7"/>
<path d="M22 8.34961C23.7397 8.34961 25.1504 9.7603 25.1504 11.5C25.1504 13.2397 23.7397 14.6504 22 14.6504C20.2603 14.6504 18.8496 13.2397 18.8496 11.5C18.8496 9.7603 20.2603 8.34961 22 8.34961Z" stroke="#F5F5F5" stroke-width="0.7"/>
<path d="M3.5 19.5C3.57884 18.0751 3.36131 17.1454 5 16.5H13C14 17 14.4991 18.1142 14.5 19.5" stroke="#F5F5F5" stroke-width="0.7"/>
<path d="M9 8.34961C10.7397 8.34961 12.1504 9.7603 12.1504 11.5C12.1504 13.2397 10.7397 14.6504 9 14.6504C7.2603 14.6504 5.84961 13.2397 5.84961 11.5C5.84961 9.7603 7.2603 8.34961 9 8.34961Z" stroke="#F5F5F5" stroke-width="0.7"/>
<path d="M29.5 19.5C29.5788 18.0751 29.3613 17.1454 31 16.5H39C40 17 40.4991 18.1142 40.5 19.5" stroke="#F5F5F5" stroke-width="0.7"/>
<path d="M35 8.34961C36.7397 8.34961 38.1504 9.7603 38.1504 11.5C38.1504 13.2397 36.7397 14.6504 35 14.6504C33.2603 14.6504 31.8496 13.2397 31.8496 11.5C31.8496 9.7603 33.2603 8.34961 35 8.34961Z" stroke="#F5F5F5" stroke-width="0.7"/>
<path d="M28.5 20L27.5 19L30 16.5L31 17.5L28.5 20Z" fill="#F97316" stroke="#F97316" stroke-width="1.2"/>
<path fill-rule="evenodd" clip-rule="evenodd" d="M14 11.0554C14 6.60559 17.6299 3 22.1055 3C26.5851 3 30.2137 6.60559 30.2137 11.0554C30.2137 15.5025 26.5837 19.1081 22.1055 19.1081C17.6299 19.1081 14 15.5025 14 11.0554ZM28.9717 11.1434C28.9717 7.347 25.8883 4.27582 22.0825 4.27582C18.2794 4.27582 15.1987 7.34835 15.1987 11.1434C15.1987 14.937 18.2794 18.0095 22.0825 18.0095C25.8883 18.0095 28.9717 14.9356 28.9717 11.1434Z" fill="#F97316"/>
<path fill-rule="evenodd" clip-rule="evenodd" d="M33.182 24.5984L35.6471 22.1333L30.1852 16.6702C30.1852 16.6702 30.0554 17.7052 29.4005 18.3573C28.7484 19.0121 27.7202 19.1366 27.7202 19.1366L33.182 24.5984Z" fill="#F97316"/>
<path fill-rule="evenodd" clip-rule="evenodd" d="M17.5204 9.86354C17.5204 10.6374 16.9251 10.3452 16.9251 9.2696C16.9251 7.41607 18.4255 5.91431 20.279 5.91431C21.3573 5.91431 21.6482 6.50825 20.8729 6.50825C19.0194 6.50825 17.5204 8.01137 17.5204 9.86354Z" fill="#F97316"/>
</svg>
